<svg xmlns="http://www.w3.org/2000/svg" width="145" height="146" viewBox="0 0 145 146">
  <g id="Group_196" data-name="Group 196" transform="translate(-298 -1846)">
    <g id="Group_193" data-name="Group 193">
      <rect id="Rectangle_20" data-name="Rectangle 20" width="145" height="146" rx="72.5" transform="translate(298 1846)" fill="#3a8fc5"/>
    </g>
    <g id="Group_8" data-name="Group 8" transform="translate(343.458 1877.468)">
      <path id="Path_43" data-name="Path 43" d="M-96.413,272.931h-14.178c-.826,0-.83,0-.83-.829q0-12.427.009-24.855a2.194,2.194,0,0,0-.474-1.417q-6.932-9.15-13.835-18.322a11.961,11.961,0,0,1-1.037-1.512,6.2,6.2,0,0,1-.156-5.794c2.007-4.341,4.068-8.657,6.031-13.017a7.273,7.273,0,0,1,3.049-3.672,6.16,6.16,0,0,1,3.015-.807q9.213,0,18.426,0c.708,0,.784.074.611.762a9.441,9.441,0,0,1-5.857,6.609,12.52,12.52,0,0,1-4.693.961c-1.53.029-1.536.028-2.209,1.426q-1.992,4.137-3.972,8.279c-.375.782-.379.793.467.886a19.236,19.236,0,0,1,7.533,2.446,13.236,13.236,0,0,1,7.031,11.951c.046,2.448.019,4.9,0,7.347,0,.515.145.718.682.7,1.707-.042,1.437.182,1.447-1.417.015-2.277-.007-4.554.007-6.831a17.287,17.287,0,0,0-.536-4.429c-.045-.174-.189-.383-.016-.536.144-.127.327.007.487.056a5.827,5.827,0,0,0,4.089-.3c.458-.193.623-.114.741.371a5.258,5.258,0,0,0,4.673,4.181,5.386,5.386,0,0,0,5.3-3.114c.911-1.9,1.758-3.824,2.65-5.729.159-.339.117-.533-.24-.657-.18-.062-.353-.147-.527-.227-.989-.456-.975-.451-1.44.571-.776,1.707-1.554,3.412-2.361,5.1a3.178,3.178,0,0,1-4.23,1.636,3.2,3.2,0,0,1-1.487-4.376q2.907-6.306,5.811-12.613a4.7,4.7,0,0,1,5.178-2.613,4.591,4.591,0,0,1,3.669,4.414c.021,6.352.007,12.7.008,19.057a3.952,3.952,0,0,1-.465,1.759q-3.546,7.21-7.1,14.418a2.642,2.642,0,0,0-.273,1.212q.01,9.012,0,18.024c0,.891,0,.892-.883.893Z" transform="translate(127.558 -190.134)" fill="#fff"/>
      <path id="Path_44" data-name="Path 44" d="M143.592,181.565a5.326,5.326,0,0,1-.493,1.953q-4.278,9.333-8.571,18.659c-.184.4-.354.806-.552,1.2A4.69,4.69,0,0,1,128.959,206a4.627,4.627,0,0,1-3.848-4.145,4.7,4.7,0,0,1,.478-2.563q1.971-4.333,3.966-8.656c1.709-3.717,3.4-7.442,5.142-11.145a4.46,4.46,0,0,1,4.188-2.717A4.681,4.681,0,0,1,143.592,181.565Z" transform="translate(-96.074 -167.181)" fill="#fff"/>
      <path id="Path_45" data-name="Path 45" d="M41.084,140.576c-.9,0-1.8,0-2.7,0-.37,0-.493-.151-.329-.5.431-.917.805-1.866,1.3-2.747a4.645,4.645,0,0,1,8.431,3.837c-.385,1.077-.917,2.1-1.4,3.145q-4.3,9.362-8.6,18.721c-.363.789-.372.784-1.069.3a22.088,22.088,0,0,0-7-3.23c-.917-.247-.914-.237-.491-1.116.8-1.672,1.622-3.339,2.393-5.026a1.237,1.237,0,0,1,1.208-.82,13.157,13.157,0,0,0,9.3-4.125,10.283,10.283,0,0,0,2.839-6.137,3.327,3.327,0,0,0-.164-1.354,1.207,1.207,0,0,0-1.318-.943c-.8,0-1.607,0-2.411,0Z" transform="translate(-10.99 -130.136)" fill="#fff"/>
      <path id="Path_46" data-name="Path 46" d="M2.609,103.668c-1.511,0-3.022.005-4.533,0-.571,0-.63-.095-.4-.6,1.1-2.4,2.171-4.812,3.313-7.19a4.654,4.654,0,0,1,8.528,3.714c-.489,1.244-1.1,2.441-1.639,3.665a.683.683,0,0,1-.734.414C5.631,103.663,4.12,103.668,2.609,103.668Z" transform="translate(16.815 -93.226)" fill="#fff"/>
    </g>
  </g>
</svg>
