<svg xmlns="http://www.w3.org/2000/svg" width="146" height="146" viewBox="0 0 146 146">
  <g id="Group_197" data-name="Group 197" transform="translate(-774 -1846)">
    <g id="Group_194" data-name="Group 194">
      <rect id="Rectangle_21" data-name="Rectangle 21" width="146" height="146" rx="73" transform="translate(774 1846)" fill="#d55363"/>
    </g>
    <g id="Group_9" data-name="Group 9" transform="translate(815.956 1884.693)">
      <path id="Path_47" data-name="Path 47" d="M61.355,151.064a28.656,28.656,0,0,1-4.92,16.3c-.32.479-.24.7.163,1.047,2.849,2.493,5.675,5.014,8.507,7.527,1.423,1.263,2.868,2.5,4.26,3.8a7.006,7.006,0,1,1-10.171,9.59c-3.553-4.395-7.049-8.836-10.55-13.274-.335-.424-.574-.44-1.011-.161a28.972,28.972,0,0,1-27.27,2A29.074,29.074,0,0,1,5.744,163.707a27.42,27.42,0,0,1-2.775-10.591A28.628,28.628,0,0,1,12.5,129.479a27.954,27.954,0,0,1,16.619-7.457,28.386,28.386,0,0,1,22.1,6.95,28.567,28.567,0,0,1,9.941,18.543c.078.6.155,1.2.188,1.8C61.38,149.895,61.355,150.48,61.355,151.064Zm-6.218.043a23.008,23.008,0,1,0-23.1,23.047A22.955,22.955,0,0,0,55.138,151.108Z" transform="translate(-2.913 -121.861)" fill="#fff"/>
      <path id="Path_48" data-name="Path 48" d="M111.962,216.784c0,.622-.012,1.244,0,1.865.008.353-.14.492-.486.545a14,14,0,0,0-8.915,22.756,13.985,13.985,0,0,0,22.245-.875c.307-.428.533-.507.988-.243,1.043.6,2.11,1.166,3.174,1.733.392.209.43.432.176.8a18.551,18.551,0,0,1-13.591,8.4A18.778,18.778,0,0,1,94.8,236.315a18.255,18.255,0,0,1,4.456-15.75,18.569,18.569,0,0,1,11.883-6.253c.733-.1.818-.025.823.719C111.966,215.616,111.962,216.2,111.962,216.784Z" transform="translate(-84.138 -203.827)" fill="#fff"/>
      <path id="Path_49" data-name="Path 49" d="M291.043,233.3a18.481,18.481,0,0,1-1.158,6.533c-.25.7-.305.724-.955.393-4.851-2.469-9.7-4.949-14.557-7.4a1.247,1.247,0,0,1-.789-1.3c.026-5.331.015-10.662.015-15.992,0-1.051,0-1.041,1.03-.908A18.85,18.85,0,0,1,291.043,233.3Z" transform="translate(-242.976 -204.077)" fill="#fff"/>
    </g>
  </g>
</svg>
