<svg xmlns="http://www.w3.org/2000/svg" width="309.411" height="99.149" viewBox="0 0 309.411 99.149">
  <g id="Group_185" data-name="Group 185" transform="translate(-143.779 -249.94)">
    <g id="Group_180" data-name="Group 180" transform="translate(355.983 249.94)">
      <path id="Path_173" data-name="Path 173" d="M368.945,259l-.249-.232-7.068,6.011-3.568,2.987,3.6,3.348,0,0,4.568,4.253L430.57,335.2l3.144-3.381,6.275-6.747Z" transform="translate(-358.061 -250.025)" fill="#d55363"/>
      <path id="Path_174" data-name="Path 174" d="M425.3,252.075l0-.339-9.2-1.173-4.612-.623-.049,4.916h0l-.065,6.242-.866,87.855,4.618.046,9.213.09Z" transform="translate(-358.57 -249.94)" fill="#3a8fc5"/>
      <path id="Path_175" data-name="Path 175" d="M359.327,290.48l-.319.115,2.111,9.034,1.024,4.54,4.624-1.67v0l5.872-2.116,82.64-29.832-1.568-4.343-3.129-8.667Z" transform="translate(-358.07 -250.014)" fill="#e19d53"/>
    </g>
    <g id="Group_182" data-name="Group 182" transform="translate(143.779 309.354)">
      <g id="Group_181" data-name="Group 181" transform="translate(0 0)">
        <path id="Path_176" data-name="Path 176" d="M143.779,325.046v-13.1a1.259,1.259,0,0,1,.384-.912,1.23,1.23,0,0,1,.906-.389,1.265,1.265,0,0,1,1.168.734l4.827,8.652,4.827-8.652a1.267,1.267,0,0,1,1.169-.734,1.231,1.231,0,0,1,.906.389,1.259,1.259,0,0,1,.383.912v13.1a1.311,1.311,0,0,1-1.289,1.29,1.256,1.256,0,0,1-.912-.384,1.226,1.226,0,0,1-.389-.906v-8.3l-3.582,6.362a1.293,1.293,0,0,1-2.224,0l-3.581-6.362v8.3a1.23,1.23,0,0,1-.389.906,1.256,1.256,0,0,1-.912.384,1.313,1.313,0,0,1-1.29-1.29Z" transform="translate(-143.779 -309.943)" fill="#231f20"/>
        <path id="Path_177" data-name="Path 177" d="M160.49,323.043a3.055,3.055,0,0,1,1.063-2.478,3.965,3.965,0,0,1,2.63-.887h2.981v-.368a1.335,1.335,0,0,0-.546-1.115,2.454,2.454,0,0,0-1.523-.418,3.074,3.074,0,0,0-1.2.224,5.67,5.67,0,0,0-1.078.608,1.219,1.219,0,0,1-.679.213,1.05,1.05,0,0,1-.762-.311,1.024,1.024,0,0,1-.317-.757,1.085,1.085,0,0,1,.3-.745,4.792,4.792,0,0,1,3.737-1.458,5.038,5.038,0,0,1,3.33,1,3.454,3.454,0,0,1,1.2,2.8v5.828a1.154,1.154,0,0,1-.359.846,1.224,1.224,0,0,1-2.077-.867,3.206,3.206,0,0,1-2.981,1.345,3.77,3.77,0,0,1-2.691-.961A3.276,3.276,0,0,1,160.49,323.043Zm2.458,0a1.2,1.2,0,0,0,.473,1.016,2.338,2.338,0,0,0,1.417.357,2.517,2.517,0,0,0,1.641-.555,1.792,1.792,0,0,0,.684-1.466v-.627h-2.658a1.783,1.783,0,0,0-1.152.33A1.148,1.148,0,0,0,162.948,323.043Z" transform="translate(-143.941 -309.99)" fill="#231f20"/>
        <path id="Path_178" data-name="Path 178" d="M171.99,325.151V311.115a1.117,1.117,0,0,1,.351-.846,1.3,1.3,0,0,1,1.746.006,1.1,1.1,0,0,1,.361.84v8.04l4.127-3.236a1.313,1.313,0,0,1,.789-.289,1.155,1.155,0,0,1,.84.345,1.127,1.127,0,0,1,.351.835,1.092,1.092,0,0,1-.457.934l-2.992,2.28,3.348,4.393a1.278,1.278,0,0,1,.255.735,1.177,1.177,0,0,1-1.178,1.178,1.113,1.113,0,0,1-.957-.478l-3.4-4.548-.723.567v3.281a1.1,1.1,0,0,1-.361.839,1.3,1.3,0,0,1-1.746.006A1.117,1.117,0,0,1,171.99,325.151Z" transform="translate(-144.053 -309.936)" fill="#231f20"/>
        <path id="Path_179" data-name="Path 179" d="M181.817,320.953a5.689,5.689,0,0,1,1.294-3.993,4.68,4.68,0,0,1,3.627-1.409,5.457,5.457,0,0,1,1.958.326,3.808,3.808,0,0,1,1.332.8,3.9,3.9,0,0,1,.783,1.113,4.917,4.917,0,0,1,.4,1.178,5.8,5.8,0,0,1,.1,1.069c0,.236,0,.416-.011.541a2.974,2.974,0,0,1-.084.483,1.073,1.073,0,0,1-.207.451,1.128,1.128,0,0,1-.413.272,1.725,1.725,0,0,1-.682.12h-5.643a2.161,2.161,0,0,0,.736,1.777,2.943,2.943,0,0,0,1.928.6,3.962,3.962,0,0,0,2.266-.719,1.449,1.449,0,0,1,.741-.248,1.072,1.072,0,0,1,1.077,1.075,1.093,1.093,0,0,1-.391.851,4.08,4.08,0,0,1-.665.5,5.627,5.627,0,0,1-1.237.5,6.049,6.049,0,0,1-1.79.257,5.033,5.033,0,0,1-3.783-1.377A5.781,5.781,0,0,1,181.817,320.953Zm2.524-1.142h4.516a2.285,2.285,0,0,0-.541-1.537,1.963,1.963,0,0,0-1.578-.632,2.458,2.458,0,0,0-1.673.562A2.25,2.25,0,0,0,184.341,319.811Z" transform="translate(-144.148 -309.99)" fill="#231f20"/>
        <path id="Path_180" data-name="Path 180" d="M197.933,318.506q0-3.993,1.835-6a6.822,6.822,0,0,1,5.293-2,7.6,7.6,0,0,1,3.342.672,5.33,5.33,0,0,1,2.141,1.785,1.418,1.418,0,0,1,.255.757,1.147,1.147,0,0,1-.36.845,1.2,1.2,0,0,1-.873.355,1.258,1.258,0,0,1-.935-.456,5.15,5.15,0,0,0-1.563-1.2,4.642,4.642,0,0,0-2.007-.389,3.935,3.935,0,0,0-3.33,1.4,9.039,9.039,0,0,0-.017,8.514,4.025,4.025,0,0,0,3.347,1.324,5.5,5.5,0,0,0,2.058-.328,4.964,4.964,0,0,0,1.624-1.174,1.441,1.441,0,0,1,.978-.512,1.234,1.234,0,0,1,1.235,1.235,1.111,1.111,0,0,1-.223.678,5.84,5.84,0,0,1-2.358,1.79,8.066,8.066,0,0,1-3.315.678Q197.933,326.48,197.933,318.506Z" transform="translate(-144.304 -309.942)" fill="#231f20"/>
        <path id="Path_181" data-name="Path 181" d="M212.645,318.506q0-3.993,1.857-6a8.173,8.173,0,0,1,10.716,0q1.851,2,1.852,6,0,3.947-1.858,5.961a8.121,8.121,0,0,1-10.7,0Q212.645,322.453,212.645,318.506Zm2.724,0q0,5.6,4.493,5.605t4.482-5.605a6.72,6.72,0,0,0-1.112-4.233,4.049,4.049,0,0,0-3.37-1.4Q215.369,312.878,215.369,318.506Z" transform="translate(-144.447 -309.942)" fill="#231f20"/>
        <path id="Path_182" data-name="Path 182" d="M228.435,311.967a1.309,1.309,0,0,1,1.323-1.323,1.259,1.259,0,0,1,.772.234,1.162,1.162,0,0,1,.429.545l3.97,10.5,3.959-10.5a1.322,1.322,0,0,1,.434-.54,1.223,1.223,0,0,1,.767-.239,1.287,1.287,0,0,1,.935.383,1.27,1.27,0,0,1,.389.94,1.287,1.287,0,0,1-.089.5L236.153,325.5a1.323,1.323,0,0,1-2.458,0l-5.171-13.034A1.269,1.269,0,0,1,228.435,311.967Z" transform="translate(-144.6 -309.943)" fill="#231f20"/>
        <path id="Path_183" data-name="Path 183" d="M243.36,325.024V311.967a1.309,1.309,0,0,1,1.323-1.323A1.31,1.31,0,0,1,246,311.967v13.057a1.318,1.318,0,0,1-2.636,0Z" transform="translate(-144.745 -309.943)" fill="#231f20"/>
        <path id="Path_184" data-name="Path 184" d="M248.784,324.837v-12.69a1.309,1.309,0,0,1,1.322-1.312h3.067a10.4,10.4,0,0,1,3.072.411,6.089,6.089,0,0,1,2.317,1.307,5.587,5.587,0,0,1,1.5,2.391,12.665,12.665,0,0,1,0,7.129,5.51,5.51,0,0,1-1.5,2.381,6.185,6.185,0,0,1-2.317,1.3,10.4,10.4,0,0,1-3.072.411h-3.067a1.267,1.267,0,0,1-.939-.389A1.283,1.283,0,0,1,248.784,324.837Zm2.636-1.046h1.757a6.372,6.372,0,0,0,1.969-.272A3.556,3.556,0,0,0,257.537,321a8.732,8.732,0,0,0,.311-2.491,5.759,5.759,0,0,0-1.184-4.077,4.625,4.625,0,0,0-3.487-1.228H251.42Z" transform="translate(-144.797 -309.945)" fill="#231f20"/>
        <path id="Path_185" data-name="Path 185" d="M262.752,321.24a1.045,1.045,0,0,1,.734-1.78h4.56a1.045,1.045,0,0,1,0,2.091h-4.56A1.006,1.006,0,0,1,262.752,321.24Z" transform="translate(-144.93 -310.028)" fill="#231f20"/>
        <path id="Path_186" data-name="Path 186" d="M270.684,314.091a1.147,1.147,0,0,1,.545-1.057l3.281-2.112a1.591,1.591,0,0,1,.8-.278,1.332,1.332,0,0,1,1.3,1.3v13.1a1.232,1.232,0,0,1-.388.906,1.265,1.265,0,0,1-1.816,0,1.231,1.231,0,0,1-.387-.906V314.2l-1.328.89a1.18,1.18,0,0,1-.748.245,1.224,1.224,0,0,1-.887-.367A1.19,1.19,0,0,1,270.684,314.091Z" transform="translate(-145.01 -309.943)" fill="#231f20"/>
        <path id="Path_187" data-name="Path 187" d="M279.219,315.848a6.33,6.33,0,0,1,.423-2.407,4.085,4.085,0,0,1,1.206-1.673,5.286,5.286,0,0,1,1.818-.947,8,8,0,0,1,2.313-.312,5.7,5.7,0,0,1,2.6.561,4.6,4.6,0,0,1,1.794,1.6,7.582,7.582,0,0,1,1.014,2.408,13.2,13.2,0,0,1,.332,3.087q0,8.319-6.083,8.318a6.874,6.874,0,0,1-2.386-.383,4.333,4.333,0,0,1-1.574-.918,1.2,1.2,0,0,1-.389-.867,1.127,1.127,0,0,1,.355-.829,1.156,1.156,0,0,1,.835-.35,1.386,1.386,0,0,1,.723.234,5.427,5.427,0,0,0,1.128.586,3.776,3.776,0,0,0,1.307.2,3.076,3.076,0,0,0,2.6-1.166,5.354,5.354,0,0,0,.894-3.319,4.354,4.354,0,0,1-1.507.993,5.093,5.093,0,0,1-1.985.387,5.572,5.572,0,0,1-3.936-1.365A4.965,4.965,0,0,1,279.219,315.848Zm2.592,0a2.694,2.694,0,0,0,.845,2.138,3.169,3.169,0,0,0,2.169.742,3.568,3.568,0,0,0,1.935-.515,3.89,3.89,0,0,0,1.324-1.39,4.711,4.711,0,0,0-.812-2.936,2.728,2.728,0,0,0-2.292-1.053,3.471,3.471,0,0,0-2.324.721A2.853,2.853,0,0,0,281.811,315.848Z" transform="translate(-145.093 -309.942)" fill="#231f20"/>
        <path id="Path_188" data-name="Path 188" d="M297.423,311.967a1.31,1.31,0,0,1,1.324-1.323,1.259,1.259,0,0,1,.772.234,1.162,1.162,0,0,1,.429.545l3.97,10.5,3.959-10.5a1.323,1.323,0,0,1,.434-.54,1.223,1.223,0,0,1,.767-.239,1.283,1.283,0,0,1,.934.383,1.267,1.267,0,0,1,.389.94,1.288,1.288,0,0,1-.088.5L305.141,325.5a1.323,1.323,0,0,1-2.458,0l-5.171-13.034A1.287,1.287,0,0,1,297.423,311.967Z" transform="translate(-145.269 -309.943)" fill="#231f20"/>
        <path id="Path_189" data-name="Path 189" d="M310.552,323.043a3.052,3.052,0,0,1,1.063-2.478,3.962,3.962,0,0,1,2.629-.887h2.981v-.368a1.334,1.334,0,0,0-.545-1.115,2.457,2.457,0,0,0-1.524-.418,3.077,3.077,0,0,0-1.2.224,5.731,5.731,0,0,0-1.078.608,1.213,1.213,0,0,1-.678.213,1.05,1.05,0,0,1-.762-.311,1.02,1.02,0,0,1-.317-.757,1.085,1.085,0,0,1,.3-.745,4.791,4.791,0,0,1,3.736-1.458,5.043,5.043,0,0,1,3.331,1,3.453,3.453,0,0,1,1.2,2.8v5.828a1.15,1.15,0,0,1-.359.846,1.224,1.224,0,0,1-2.076-.867,3.208,3.208,0,0,1-2.981,1.345,3.772,3.772,0,0,1-2.692-.961A3.275,3.275,0,0,1,310.552,323.043Zm2.458,0a1.2,1.2,0,0,0,.472,1.016,2.342,2.342,0,0,0,1.418.357,2.516,2.516,0,0,0,1.64-.555,1.792,1.792,0,0,0,.684-1.466v-.627h-2.658a1.782,1.782,0,0,0-1.151.33A1.148,1.148,0,0,0,313.01,323.043Z" transform="translate(-145.396 -309.99)" fill="#231f20"/>
        <path id="Path_190" data-name="Path 190" d="M322.741,325.132a7.173,7.173,0,0,1-.006-8.217,4.811,4.811,0,0,1,3.67-1.364,5.247,5.247,0,0,1,1.79.3,4.68,4.68,0,0,1,1.246.617,3.889,3.889,0,0,1,.678.651,1.235,1.235,0,0,1,.245.7,1.073,1.073,0,0,1-.317.779,1.041,1.041,0,0,1-.772.322,1.109,1.109,0,0,1-.846-.389,2.648,2.648,0,0,0-2.024-.889,2.112,2.112,0,0,0-1.824.879,5.284,5.284,0,0,0,0,5.019,2.115,2.115,0,0,0,1.824.874,2.832,2.832,0,0,0,.952-.168,3.368,3.368,0,0,0,.7-.32q.229-.152.606-.433a1.169,1.169,0,0,1,.678-.225,1.084,1.084,0,0,1,1.09,1.09,1.109,1.109,0,0,1-.389.846,5.321,5.321,0,0,1-1.469.9,5.408,5.408,0,0,1-2.169.405A4.791,4.791,0,0,1,322.741,325.132Z" transform="translate(-145.502 -309.99)" fill="#231f20"/>
        <path id="Path_191" data-name="Path 191" d="M333.106,325.132a7.175,7.175,0,0,1,0-8.217,4.81,4.81,0,0,1,3.67-1.364,5.247,5.247,0,0,1,1.79.3,4.68,4.68,0,0,1,1.246.617,3.931,3.931,0,0,1,.678.651,1.243,1.243,0,0,1,.245.7,1.074,1.074,0,0,1-.317.779,1.043,1.043,0,0,1-.773.322,1.109,1.109,0,0,1-.845-.389,2.648,2.648,0,0,0-2.024-.889,2.112,2.112,0,0,0-1.824.879,5.284,5.284,0,0,0,0,5.019,2.115,2.115,0,0,0,1.824.874,2.821,2.821,0,0,0,.951-.168,3.342,3.342,0,0,0,.7-.32q.229-.152.607-.433a1.169,1.169,0,0,1,.678-.225,1.082,1.082,0,0,1,1.089,1.09,1.106,1.106,0,0,1-.389.846,5.3,5.3,0,0,1-1.468.9,5.408,5.408,0,0,1-2.169.405A4.8,4.8,0,0,1,333.106,325.132Z" transform="translate(-145.603 -309.99)" fill="#231f20"/>
        <path id="Path_192" data-name="Path 192" d="M342.547,312.976a1.468,1.468,0,1,1,2.936,0,1.419,1.419,0,0,1-.383,1.057,1.5,1.5,0,0,1-1.1.378,1.45,1.45,0,0,1-1.079-.384A1.434,1.434,0,0,1,342.547,312.976Zm.234,12.145v-8.252A1.217,1.217,0,0,1,344,315.645a1.2,1.2,0,0,1,.872.357,1.167,1.167,0,0,1,.362.868v8.252a1.17,1.17,0,0,1-.362.867,1.2,1.2,0,0,1-.872.356,1.216,1.216,0,0,1-1.224-1.223Z" transform="translate(-145.707 -309.951)" fill="#231f20"/>
        <path id="Path_193" data-name="Path 193" d="M347.556,325.205v-8.3a1.17,1.17,0,0,1,.36-.867,1.237,1.237,0,0,1,1.738,0,1.173,1.173,0,0,1,.359.867,3.021,3.021,0,0,1,1.121-.963,3.784,3.784,0,0,1,1.8-.4q3.829,0,3.829,3.96v5.694a1.1,1.1,0,0,1-.361.839,1.226,1.226,0,0,1-.872.34,1.209,1.209,0,0,1-.885-.334,1.136,1.136,0,0,1-.339-.845v-5.239q0-2.191-2.018-2.191a2.043,2.043,0,0,0-2.275,2.346v5.083a1.109,1.109,0,0,1-.355.845,1.312,1.312,0,0,1-1.749,0A1.109,1.109,0,0,1,347.556,325.205Z" transform="translate(-145.755 -309.99)" fill="#231f20"/>
        <path id="Path_194" data-name="Path 194" d="M358.562,320.953a5.689,5.689,0,0,1,1.294-3.993,4.68,4.68,0,0,1,3.628-1.409,5.457,5.457,0,0,1,1.958.326,3.808,3.808,0,0,1,1.332.8,3.9,3.9,0,0,1,.783,1.113,4.872,4.872,0,0,1,.4,1.178,5.8,5.8,0,0,1,.1,1.069c0,.236,0,.416-.011.541a2.875,2.875,0,0,1-.084.483,1.073,1.073,0,0,1-.207.451,1.128,1.128,0,0,1-.413.272,1.725,1.725,0,0,1-.682.12H361.02a2.164,2.164,0,0,0,.736,1.777,2.944,2.944,0,0,0,1.928.6,3.962,3.962,0,0,0,2.266-.719,1.452,1.452,0,0,1,.741-.248,1.074,1.074,0,0,1,1.078,1.075,1.094,1.094,0,0,1-.392.851,4.081,4.081,0,0,1-.666.5,5.626,5.626,0,0,1-1.237.5,6.049,6.049,0,0,1-1.79.257,5.035,5.035,0,0,1-3.783-1.377A5.781,5.781,0,0,1,358.562,320.953Zm2.524-1.142H365.6a2.285,2.285,0,0,0-.541-1.537,1.963,1.963,0,0,0-1.578-.632,2.458,2.458,0,0,0-1.673.562A2.25,2.25,0,0,0,361.086,319.811Z" transform="translate(-145.862 -309.99)" fill="#231f20"/>
        <path id="Path_195" data-name="Path 195" d="M369.276,324.16a1.125,1.125,0,0,1,1.105-1.1,1.169,1.169,0,0,1,.7.27,3.961,3.961,0,0,0,2.511.908q1.7,0,1.7-.913a.809.809,0,0,0-.24-.574,1.7,1.7,0,0,0-.634-.4q-.4-.15-.9-.323T372.5,321.7a5.022,5.022,0,0,1-1.023-.423,5.306,5.306,0,0,1-.9-.607,2.386,2.386,0,0,1-.635-.88,3.073,3.073,0,0,1-.239-1.237,2.582,2.582,0,0,1,1.073-2.225,4.531,4.531,0,0,1,2.73-.779,6.011,6.011,0,0,1,2.191.392,3.545,3.545,0,0,1,1.5.991,1.071,1.071,0,0,1,.223.664,1.1,1.1,0,0,1-1.09,1.09,1.428,1.428,0,0,1-.778-.312,3.425,3.425,0,0,0-2.046-.735,1.855,1.855,0,0,0-1,.223.719.719,0,0,0-.351.646.752.752,0,0,0,.311.59,2.632,2.632,0,0,0,.8.43c.327.115.689.23,1.09.345a10.182,10.182,0,0,1,1.2.429,5.834,5.834,0,0,1,1.08.6,2.626,2.626,0,0,1,.8.93,2.859,2.859,0,0,1,.309,1.354,2.816,2.816,0,0,1-1.169,2.423,4.982,4.982,0,0,1-3,.849,5.826,5.826,0,0,1-2.435-.5,4.339,4.339,0,0,1-1.59-1.107A1.11,1.11,0,0,1,369.276,324.16Z" transform="translate(-145.966 -309.99)" fill="#231f20"/>
      </g>
    </g>
    <g id="Group_184" data-name="Group 184" transform="translate(144.092 331.78)">
      <g id="Group_183" data-name="Group 183">
        <path id="Path_196" data-name="Path 196" d="M144.1,348.893a.805.805,0,0,1,.07-.36l5.8-14.668a.777.777,0,0,1,.766-.546.787.787,0,0,1,.778.546l5.8,14.668a.964.964,0,0,1,.069.36.774.774,0,0,1-.232.569.816.816,0,0,1-.6.232.76.76,0,0,1-.778-.546l-1.717-4.375h-6.626l-1.729,4.352a.825.825,0,0,1-1.364.331A.767.767,0,0,1,144.1,348.893Zm3.83-5.594h5.628l-2.82-7.265Z" transform="translate(-144.095 -332.588)" fill="#231f20"/>
        <path id="Path_197" data-name="Path 197" d="M164.92,341.522q0-4.143,1.943-6.243a7.91,7.91,0,0,1,8.565-1.428,5.811,5.811,0,0,1,2.257,1.845.853.853,0,0,1,.162.5.749.749,0,0,1-.215.546.718.718,0,0,1-.539.221.781.781,0,0,1-.627-.314,4.755,4.755,0,0,0-1.735-1.439,5.217,5.217,0,0,0-2.4-.557,5.341,5.341,0,0,0-4.271,1.717,7.7,7.7,0,0,0-1.485,5.152q0,3.6,1.457,5.223a5.479,5.479,0,0,0,4.3,1.624,5.966,5.966,0,0,0,2.64-.54,5.18,5.18,0,0,0,1.782-1.364V343.02h-3.969a.7.7,0,0,1-.517-.221.723.723,0,0,1-.214-.522.73.73,0,0,1,.731-.731h4.8a.71.71,0,0,1,.511.214.7.7,0,0,1,.221.517v4.166a1.25,1.25,0,0,1-.3.777,8.053,8.053,0,0,1-2.362,1.9,7.01,7.01,0,0,1-3.324.72,7.2,7.2,0,0,1-5.5-2.031Q164.92,345.782,164.92,341.522Z" transform="translate(-144.297 -332.587)" fill="#231f20"/>
        <path id="Path_198" data-name="Path 198" d="M181.326,346.913V333.335a.717.717,0,0,1,.232-.528.744.744,0,0,1,.534-.226.752.752,0,0,1,.755.754v13.578q0,1.358.952,1.359a.711.711,0,0,1,.505.2.7.7,0,0,1,0,1.009.711.711,0,0,1-.505.2,2.352,2.352,0,0,1-1.834-.7A2.987,2.987,0,0,1,181.326,346.913Z" transform="translate(-144.456 -332.581)" fill="#231f20"/>
        <path id="Path_199" data-name="Path 199" d="M187.178,348.432a7.643,7.643,0,0,1-.006-8.57,5.478,5.478,0,0,1,7.364,0,6.134,6.134,0,0,1,1.305,4.276,6.2,6.2,0,0,1-1.305,4.294,5.423,5.423,0,0,1-7.358,0Zm.227-4.294q0,4.352,3.446,4.352t3.446-4.352q0-4.329-3.446-4.329T187.4,344.138Z" transform="translate(-144.5 -332.638)" fill="#231f20"/>
        <path id="Path_200" data-name="Path 200" d="M198.33,345.126V333.335a.721.721,0,0,1,.22-.539.751.751,0,0,1,.546-.215.735.735,0,0,1,.755.754v6.592a3.657,3.657,0,0,1,1.311-1.091,4.064,4.064,0,0,1,1.926-.453q4.77,0,4.77,5.7a6.353,6.353,0,0,1-1.26,4.3,4.538,4.538,0,0,1-3.6,1.433,4.733,4.733,0,0,1-3.383-1.207A4.547,4.547,0,0,1,198.33,345.126Zm1.52,0a3.313,3.313,0,0,0,.853,2.472,3.137,3.137,0,0,0,2.293.836q3.342,0,3.342-4.352a5.176,5.176,0,0,0-.854-3.249A2.981,2.981,0,0,0,203,339.753a3.256,3.256,0,0,0-1.184.215,2.882,2.882,0,0,0-.9.522,5.526,5.526,0,0,0-.6.621,3.117,3.117,0,0,0-.36.522l-.1.221Z" transform="translate(-144.621 -332.581)" fill="#231f20"/>
        <path id="Path_201" data-name="Path 201" d="M209.615,346.471a2.983,2.983,0,0,1,1.114-2.461,4.73,4.73,0,0,1,3.04-.893h3.354v-.639a2.5,2.5,0,0,0-.755-1.914,2.879,2.879,0,0,0-2.054-.708,3.725,3.725,0,0,0-1.561.29,3.579,3.579,0,0,0-1.189.928.83.83,0,0,1-.627.337.649.649,0,0,1-.487-.2.682.682,0,0,1-.2-.493.783.783,0,0,1,.117-.406,3.814,3.814,0,0,1,1.531-1.358,5.248,5.248,0,0,1,2.414-.511,4.377,4.377,0,0,1,3.179,1.091,3.909,3.909,0,0,1,1.127,2.947v6.534a.691.691,0,0,1-.224.516.741.741,0,0,1-.531.215.719.719,0,0,1-.525-.215.7.7,0,0,1-.218-.516v-.859a2.922,2.922,0,0,1-1.364,1.265,5.219,5.219,0,0,1-5.049-.441A3.054,3.054,0,0,1,209.615,346.471Zm1.543,0a1.792,1.792,0,0,0,.673,1.485,3.235,3.235,0,0,0,2.031.534,3.479,3.479,0,0,0,2.3-.8,2.751,2.751,0,0,0,.964-2.24v-1h-3.354a3.185,3.185,0,0,0-1.909.511A1.749,1.749,0,0,0,211.158,346.471Z" transform="translate(-144.73 -332.638)" fill="#231f20"/>
        <path id="Path_202" data-name="Path 202" d="M221.556,346.913V333.335a.714.714,0,0,1,.233-.528.743.743,0,0,1,.534-.226.751.751,0,0,1,.754.754v13.578q0,1.358.952,1.359a.708.708,0,0,1,.505.2.7.7,0,0,1,0,1.009.708.708,0,0,1-.505.2,2.349,2.349,0,0,1-1.833-.7A2.982,2.982,0,0,1,221.556,346.913Z" transform="translate(-144.846 -332.581)" fill="#231f20"/>
        <path id="Path_203" data-name="Path 203" d="M232.009,341.522q0-4.143,1.944-6.243a7.91,7.91,0,0,1,8.565-1.428,5.811,5.811,0,0,1,2.257,1.845.86.86,0,0,1,.162.5.749.749,0,0,1-.215.546.719.719,0,0,1-.54.221.778.778,0,0,1-.626-.314,4.744,4.744,0,0,0-1.741-1.439,5.225,5.225,0,0,0-2.391-.557,5.341,5.341,0,0,0-4.271,1.717,7.7,7.7,0,0,0-1.485,5.152q0,3.6,1.457,5.223a5.479,5.479,0,0,0,4.3,1.624,5.715,5.715,0,0,0,2.35-.493,4.228,4.228,0,0,0,1.782-1.456.776.776,0,0,1,1.166-.093.749.749,0,0,1,.215.546.8.8,0,0,1-.14.453,5.435,5.435,0,0,1-2.257,1.827,7.28,7.28,0,0,1-3.115.691,7.2,7.2,0,0,1-5.5-2.031Q232.009,345.782,232.009,341.522Z" transform="translate(-144.948 -332.587)" fill="#231f20"/>
        <path id="Path_204" data-name="Path 204" d="M248.256,348.432a7.643,7.643,0,0,1-.006-8.57,5.478,5.478,0,0,1,7.364,0,6.134,6.134,0,0,1,1.305,4.276,6.2,6.2,0,0,1-1.305,4.294,5.423,5.423,0,0,1-7.358,0Zm.227-4.294q0,4.352,3.446,4.352t3.447-4.352q0-4.329-3.447-4.329T248.483,344.138Z" transform="translate(-145.092 -332.638)" fill="#231f20"/>
        <path id="Path_205" data-name="Path 205" d="M259.408,348.989v-9.655a.721.721,0,0,1,.22-.539.752.752,0,0,1,.546-.215.735.735,0,0,1,.755.754v.766a2.665,2.665,0,0,1,1.155-1.183,3.81,3.81,0,0,1,1.932-.476,5.546,5.546,0,0,1,2.368.453A3.146,3.146,0,0,1,267.8,340.1a3.8,3.8,0,0,1,3.47-1.66,6.371,6.371,0,0,1,1.869.25,3.869,3.869,0,0,1,1.3.644,3.159,3.159,0,0,1,.794.964,3.99,3.99,0,0,1,.418,1.132,6.321,6.321,0,0,1,.111,1.212v6.348a.735.735,0,0,1-.755.755.749.749,0,0,1-.546-.215.723.723,0,0,1-.221-.54v-6.034a3.632,3.632,0,0,0-.667-2.35,2.824,2.824,0,0,0-2.3-.818,3.007,3.007,0,0,0-2.233.748,2.871,2.871,0,0,0-.738,2.106v6.348a.733.733,0,0,1-.754.755.749.749,0,0,1-.546-.215.719.719,0,0,1-.221-.54v-6.034a3.753,3.753,0,0,0-.638-2.356,2.759,2.759,0,0,0-2.287-.812,2.683,2.683,0,0,0-2.251.865,3.94,3.94,0,0,0-.673,2.466v5.872a.735.735,0,0,1-.755.755.752.752,0,0,1-.546-.215A.722.722,0,0,1,259.408,348.989Z" transform="translate(-145.213 -332.638)" fill="#231f20"/>
        <path id="Path_206" data-name="Path 206" d="M278.791,348.989v-9.655a.721.721,0,0,1,.22-.539.751.751,0,0,1,.546-.215.735.735,0,0,1,.755.754v.766a2.665,2.665,0,0,1,1.155-1.183,3.808,3.808,0,0,1,1.932-.476,5.547,5.547,0,0,1,2.368.453,3.146,3.146,0,0,1,1.415,1.207,3.8,3.8,0,0,1,3.47-1.66,6.372,6.372,0,0,1,1.869.25,3.855,3.855,0,0,1,1.3.644,3.148,3.148,0,0,1,.8.964,3.989,3.989,0,0,1,.418,1.132,6.324,6.324,0,0,1,.11,1.212v6.348a.733.733,0,0,1-.754.755.749.749,0,0,1-.546-.215.719.719,0,0,1-.221-.54v-6.034a3.627,3.627,0,0,0-.667-2.35,2.821,2.821,0,0,0-2.3-.818,3.008,3.008,0,0,0-2.234.748,2.875,2.875,0,0,0-.737,2.106v6.348a.735.735,0,0,1-.755.755.748.748,0,0,1-.545-.215.719.719,0,0,1-.221-.54v-6.034a3.753,3.753,0,0,0-.638-2.356,2.76,2.76,0,0,0-2.287-.812,2.685,2.685,0,0,0-2.252.865,3.94,3.94,0,0,0-.672,2.466v5.872a.735.735,0,0,1-.755.755.75.75,0,0,1-.546-.215A.722.722,0,0,1,278.791,348.989Z" transform="translate(-145.401 -332.638)" fill="#231f20"/>
        <path id="Path_207" data-name="Path 207" d="M298.776,348.432a7.643,7.643,0,0,1-.006-8.57,5.476,5.476,0,0,1,7.363,0,6.134,6.134,0,0,1,1.306,4.276,6.2,6.2,0,0,1-1.306,4.294,5.421,5.421,0,0,1-7.357,0Zm.226-4.294q0,4.352,3.447,4.352t3.446-4.352q0-4.329-3.446-4.329T299,344.138Z" transform="translate(-145.582 -332.638)" fill="#231f20"/>
        <path id="Path_208" data-name="Path 208" d="M309.927,348.989v-9.655a.722.722,0,0,1,.221-.539.749.749,0,0,1,.546-.215.735.735,0,0,1,.755.754v.766a2.818,2.818,0,0,1,1.206-1.189,3.974,3.974,0,0,1,1.962-.47,6.192,6.192,0,0,1,1.851.25,3.66,3.66,0,0,1,1.265.644,3.058,3.058,0,0,1,.761.964,4.019,4.019,0,0,1,.388,1.126,6.942,6.942,0,0,1,.1,1.218v6.348a.735.735,0,0,1-.755.755.752.752,0,0,1-.546-.215.722.722,0,0,1-.22-.54v-6.034a5.956,5.956,0,0,0-.122-1.294,2.822,2.822,0,0,0-.43-.986,1.836,1.836,0,0,0-.876-.667,3.948,3.948,0,0,0-1.415-.22q-3.169,0-3.168,3.33v5.872a.735.735,0,0,1-.755.755.749.749,0,0,1-.546-.215A.723.723,0,0,1,309.927,348.989Z" transform="translate(-145.703 -332.638)" fill="#231f20"/>
        <path id="Path_209" data-name="Path 209" d="M327.154,341.522q0-4.143,1.944-6.243a7.908,7.908,0,0,1,8.564-1.428,5.822,5.822,0,0,1,2.258,1.845.86.86,0,0,1,.162.5.753.753,0,0,1-.215.546.721.721,0,0,1-.54.221.781.781,0,0,1-.627-.314,4.756,4.756,0,0,0-1.735-1.439,5.214,5.214,0,0,0-2.4-.557,5.339,5.339,0,0,0-4.27,1.717,7.7,7.7,0,0,0-1.485,5.152q0,3.6,1.456,5.223a5.48,5.48,0,0,0,4.3,1.624,5.966,5.966,0,0,0,2.64-.54,5.18,5.18,0,0,0,1.782-1.364V343.02h-3.969a.691.691,0,0,1-.516-.221.72.72,0,0,1-.215-.522.732.732,0,0,1,.731-.731h4.8a.71.71,0,0,1,.51.214.7.7,0,0,1,.221.517v4.166a1.245,1.245,0,0,1-.3.777,8.037,8.037,0,0,1-2.361,1.9,7.017,7.017,0,0,1-3.325.72,7.2,7.2,0,0,1-5.5-2.031Q327.153,345.782,327.154,341.522Z" transform="translate(-145.87 -332.587)" fill="#231f20"/>
        <path id="Path_210" data-name="Path 210" d="M344.162,348.432a7.641,7.641,0,0,1,0-8.57,5.476,5.476,0,0,1,7.363,0,6.134,6.134,0,0,1,1.305,4.276,6.2,6.2,0,0,1-1.305,4.294,5.423,5.423,0,0,1-7.358,0Zm.227-4.294q0,4.352,3.446,4.352t3.447-4.352q0-4.329-3.447-4.329T344.389,344.138Z" transform="translate(-146.023 -332.638)" fill="#231f20"/>
        <path id="Path_211" data-name="Path 211" d="M355.916,348.432a7.643,7.643,0,0,1-.006-8.57,5.478,5.478,0,0,1,7.364,0,6.134,6.134,0,0,1,1.305,4.276,6.2,6.2,0,0,1-1.305,4.294,5.423,5.423,0,0,1-7.358,0Zm.227-4.294q0,4.352,3.446,4.352t3.447-4.352q0-4.329-3.447-4.329T356.143,344.138Z" transform="translate(-146.137 -332.638)" fill="#231f20"/>
        <path id="Path_212" data-name="Path 212" d="M366.353,344.081q0-5.7,4.77-5.7a4.064,4.064,0,0,1,1.926.453,3.656,3.656,0,0,1,1.311,1.091v-6.592a.735.735,0,0,1,.755-.754.751.751,0,0,1,.546.215.721.721,0,0,1,.22.539v11.792a4.558,4.558,0,0,1-1.276,3.481,4.711,4.711,0,0,1-3.377,1.207,4.56,4.56,0,0,1-3.61-1.433A6.338,6.338,0,0,1,366.353,344.081Zm1.52,0q0,4.352,3.354,4.352a3.118,3.118,0,0,0,2.287-.836,3.328,3.328,0,0,0,.847-2.472v-3.273q-.034-.082-.11-.226a4.339,4.339,0,0,0-.349-.505,3.982,3.982,0,0,0-.6-.639,3.355,3.355,0,0,0-.888-.505,3.119,3.119,0,0,0-1.183-.226,3,3,0,0,0-2.5,1.079A5.156,5.156,0,0,0,367.873,344.081Z" transform="translate(-146.251 -332.581)" fill="#231f20"/>
      </g>
    </g>
  </g>
</svg>
