<svg xmlns="http://www.w3.org/2000/svg" width="193.332" height="262.161" viewBox="0 0 193.332 262.161">
  <g id="YC_Logo_Footer" data-name="YC Logo Footer" transform="translate(-1590.555 -85.118)" opacity="0.3">
    <path id="Path_130" data-name="Path 130" d="M1648.266,227.8l-1.441-1.162a169.587,169.587,0,0,1-21.942-20.43,107.241,107.241,0,0,1-14.123-19.644c-6.519-11.837-9.628-23.97-9.223-36.04a68.157,68.157,0,0,1,6.692-26.615,93.223,93.223,0,0,1,13.24-20.308,105.89,105.89,0,0,1,18.859-17.629l1.292-.858,1.263.9c28.056,19.556,42.821,41.79,43.936,66.178a73.316,73.316,0,0,1-5.057,29.34,105.816,105.816,0,0,1-12.843,23.544,126.486,126.486,0,0,1-19.243,21.52ZM1641.6,87.746l-.05.042a100.943,100.943,0,0,0-18.415,17.186,89.638,89.638,0,0,0-12.952,19.839,65.534,65.534,0,0,0-6.48,25.8c-.41,11.647,2.615,23.4,8.918,34.921a108.935,108.935,0,0,0,13.839,19.251A174,174,0,0,0,1648.152,225l.076.021.068-.021a128.028,128.028,0,0,0,18.854-21.144,103.852,103.852,0,0,0,12.606-23.125,70.9,70.9,0,0,0,4.926-28.453c-1.086-23.67-15.555-45.364-43-64.488Zm6.628,137.02-.722-.613c-29.771-23.772-44.443-48.5-43.576-73.5.655-19.522,10.852-35.491,19.3-45.474a108.244,108.244,0,0,1,17.735-16.746l.637-.444.613.418c26.97,18.964,41.177,40.446,42.242,63.863.942,20.891-8.952,39.487-17.418,51.388a128.792,128.792,0,0,1-18.123,20.489Zm-6.6-134.118a106.236,106.236,0,0,0-16.746,15.927c-8.213,9.729-18.187,25.271-18.813,44.126-.849,24.114,13.3,48.076,42.073,71.239a128.563,128.563,0,0,0,17.131-19.492c8.288-11.647,17.958-29.8,17.05-50.087-1.056-22.517-14.744-43.264-40.7-61.713" transform="translate(35.302 0)" fill="#fff"/>
    <path id="Path_131" data-name="Path 131" d="M1628.879,105.26l-22.125-12.809,2.277-3.92,22.1,12.855ZM1609.7,91.653l18.406,10.676.106-.19-18.406-10.654Z" transform="translate(52.239 11.006)" fill="#fff"/>
    <path id="Path_132" data-name="Path 132" d="M1620.791,346.941l-4.53-.106.009-1.077c2.028-97.8,2.184-169.495.545-213.114-.6-15.834-1.462-27.654-2.514-35.212-.942-6.907-1.808-8.128-1.838-8.166l.143-.131-2.234-1.014.451-.967a3.051,3.051,0,0,1,3.363-1.871c2.074.439,3.194,2.839,4.233,9.159,1.15,6.928,2.045,18.242,2.717,33.632,1.854,43.116,1.74,116.379-.334,217.769Zm-2.337-2.231.2.021c2.057-100.8,2.18-173.627.322-216.548-.659-15.335-1.555-26.581-2.679-33.362a33.632,33.632,0,0,0-1.305-5.686l-.178.131a44.176,44.176,0,0,1,1.627,7.866c1.056,7.63,1.91,19.556,2.514,35.427,1.652,43.471,1.479,114.867-.5,212.151M1613.6,87.576a.337.337,0,0,0-.262.106l.3.393.326-.334a.565.565,0,0,0-.36-.165" transform="translate(63.905 0.338)" fill="#fff"/>
    <path id="Path_133" data-name="Path 133" d="M1647.253,126.292l-.43-.169-44.963-18.85,1.745-4.149.988.4,42.613,17.883,35.238-15.711,1.834,4.111Zm-42.609-20.181,42.575,17.845,34.223-15.209-.1-.215L1647.22,123.74l-.431-.186-42.052-17.629Z" transform="translate(36.454 58.062)" fill="#fff"/>
    <path id="Path_134" data-name="Path 134" d="M1648.319,122.4l-.443-.144-46.428-15.2,1.39-4.279,45.047,14.744,35.462-18.453,2.087,3.984Zm-44.164-16.721,43.961,14.406,34.406-17.921-.1-.186L1648.1,119.832l-.448-.127-43.425-14.241Z" transform="translate(35.126 44.957)" fill="#fff"/>
    <path id="Path_135" data-name="Path 135" d="M1645.589,122.373l-43.45-19.332,1.838-4.132,41.059,18.28,30.628-22.2,2.619,3.663Zm-40.62-20.43,40.349,17.967,29.961-21.757-.114-.173-29.876,21.681-40.219-17.929Z" transform="translate(37.354 31.843)" fill="#fff"/>
    <path id="Path_136" data-name="Path 136" d="M1638.485,112.113l-34.57-11.711,1.462-4.254,32.428,11L1660.951,91.3l2.564,3.73Zm-31.837-13.058,31.524,10.7,22.348-15.289-.118-.169-22.273,15.2-31.418-10.654Z" transform="translate(43.081 19.944)" fill="#fff"/>
    <path id="Path_137" data-name="Path 137" d="M1613.688,102.217l-2.065-4.039,17.447-8.889,2.057,4Zm.82-3.067.105.186,13.625-6.928-.119-.211Z" transform="translate(67.936 13.453)" fill="#fff"/>
    <path id="Path_138" data-name="Path 138" d="M1643.033,127.287l-39.808-15.441,1.635-4.216,1,.384,36.986,14.359,30.083-14.406,1.948,4.064Zm-37.016-16.7,36.935,14.359,29.07-13.9-.1-.207-28.976,13.878-36.859-14.3Z" transform="translate(40.855 72.592)" fill="#fff"/>
    <path id="Path_139" data-name="Path 139" d="M1629.763,127.649l-.363-.038-21.967-3.477.7-4.444,20.852,3.266,22.424-11.711,2.113,3.937Zm-19.877-5.306,19.5,3.076,21.22-11.144-.093-.165-21.144,11.1-.38-.084-19.07-2.991Z" transform="translate(54.422 84.249)" fill="#fff"/>
    <path id="Path_140" data-name="Path 140" d="M1651.22,229.668a54.924,54.924,0,0,1-21.486-4.529,66.907,66.907,0,0,1-18.626-12.361,93.937,93.937,0,0,1-9.484-10.19c-1.5-1.838-2.991-3.857-4.664-6.278a33.519,33.519,0,0,1-5.234-12.429,61.723,61.723,0,0,1-1.17-13.185,118.232,118.232,0,0,1,2.222-22.116,126.852,126.852,0,0,1,6.13-21.292c2.568-6.616,6.032-15.665,10.4-22.952-1.723-1.39-2.78-2.108-2.852-2.171l-.9-.651,2.641-3.646.879.613a135.346,135.346,0,0,1,11.66,9.67,188.12,188.12,0,0,1,24.152,26.594c9.754,13.189,16.746,26.729,20.823,40.315a99.626,99.626,0,0,1,4.128,24.3,95.192,95.192,0,0,1-2.789,26.492c-.5,1.872-2.61,2.547-6.1,3.071-2.193.3-4.592.49-5.488.57l-.32.025c-1.3.1-2.611.144-3.917.144m-42.66-128.622c.655.469,1.631,1.225,2.822,2.2l.748.608-.494.777c-4.47,7.292-8.094,16.62-10.743,23.421a125.041,125.041,0,0,0-6.008,20.933,114.53,114.53,0,0,0-2.171,21.714,60.364,60.364,0,0,0,1.1,12.72,31.778,31.778,0,0,0,4.913,11.651c1.661,2.421,3.1,4.356,4.546,6.168a92.212,92.212,0,0,0,9.281,9.945,64.325,64.325,0,0,0,18.048,11.96,51.434,51.434,0,0,0,24.363,4.229l.312-.017c.888-.085,3.224-.228,5.352-.549,1-.169,4.1-.613,4.3-1.5a89.609,89.609,0,0,0,2.734-25.863,96.189,96.189,0,0,0-4.022-23.776c-3.98-13.333-10.891-26.687-20.48-39.656a188.174,188.174,0,0,0-23.869-26.285c-5.074-4.613-8.939-7.6-10.617-8.846Zm42.681,126.265a51.892,51.892,0,0,1-20.552-4.339,64.49,64.49,0,0,1-17.989-11.943,90.829,90.829,0,0,1-9.251-9.962c-1.445-1.745-2.89-3.7-4.542-6.1-5.331-7.625-6.008-16.56-5.974-24.241a119.759,119.759,0,0,1,8.166-42.588c2.6-6.7,6.16-15.9,10.536-23.083l.667-1.069.925.773c1.7,1.394,3.692,3.139,5.915,5.141A185.24,185.24,0,0,1,1643,136.135c15,20.329,30.979,52.212,21.786,88.839l-.105.5-.448.211a13.68,13.68,0,0,1-4.174.967c-1.762.249-3.561.384-4.516.469l-.6.059c-1.221.084-2.471.127-3.705.127m-38.4-120.067c-3.992,6.861-7.3,15.394-9.721,21.651a117.6,117.6,0,0,0-8.048,41.828c-.042,7.372.625,15.88,5.615,23.02,1.613,2.357,3.025,4.254,4.444,6a88.373,88.373,0,0,0,9.037,9.733,63.01,63.01,0,0,0,17.354,11.52,49.273,49.273,0,0,0,23.262,4.018l.6-.038c.929-.084,2.661-.232,4.38-.469a30.009,30.009,0,0,0,3.085-.566c8.689-35.634-6.907-66.677-21.58-86.537a184.238,184.238,0,0,0-23.552-25.909c-1.775-1.639-3.426-3.025-4.875-4.25" transform="translate(0 41.117)" fill="#fff"/>
    <path id="Path_141" data-name="Path 141" d="M1608.342,126.266l-15.935-6.383,1.669-4.17,12.5,5.019,12.142-18.854,3.789,2.421Zm-13.129-7.558,12.26,4.926,12.086-18.7-.194-.084-11.956,18.533-12.137-4.888Z" transform="translate(5.972 54.041)" fill="#fff"/>
    <path id="Path_142" data-name="Path 142" d="M1615.826,132.392c-4.068,0-9.015-1.6-14.723-4.85a68.98,68.98,0,0,1-8.927-5.974l-.836-.676,2.847-3.519.837.693c.143.084,13.358,10.578,21.812,9.8,3.168-4,12.462-15.732,16.856-21.862l.646-.883,3.672,2.632-.638.883c-5.306,7.414-17.439,22.58-17.558,22.707l-.5.629-.824.186a13.614,13.614,0,0,1-2.661.237m-21.452-11.841a73.454,73.454,0,0,0,7.786,5.124c5.378,3.029,9.978,4.571,13.666,4.571a11.508,11.508,0,0,0,2.26-.215l.055-.017c.105-.152,11.343-14.2,16.869-21.757l-.169-.127c-4.778,6.531-13.835,17.916-16.594,21.393l-.258.338-.427.089c-8.3,1.158-19.86-7.123-23.05-9.586Z" transform="translate(2.531 64.492)" fill="#fff"/>
    <path id="Path_143" data-name="Path 143" d="M1625.144,137.034c-4.947,0-11.93-1.559-20.756-4.7-6.915-2.442-12.513-4.968-12.551-4.989l-.984-.439,1.88-4.111.976.444c.215.1,20.392,9.222,31.317,9.265,2.713-2.8,12.936-13.624,18.838-23.734l.52-.946,3.895,2.277-.533.9a126.385,126.385,0,0,1-12.762,17.317c-4.08,4.694-7.367,8-7.405,8.023l-.621.608-.875.063c-.3.021-.62.021-.937.021m-31.435-11.182c1.88.807,6.256,2.636,11.411,4.444,8.567,3.033,15.3,4.592,20.025,4.592a3.712,3.712,0,0,0,.837-.046h.092c.03-.038,3.224-3.278,7.271-7.955a124.221,124.221,0,0,0,11.977-16.024l-.185-.084c-6.32,10.485-16.789,21.457-18.876,23.539l-.316.355h-.778c-9.9,0-27.063-7.178-31.359-9.036Z" transform="translate(0.961 73.221)" fill="#fff"/>
    <path id="Path_144" data-name="Path 144" d="M1633.424,129.834l-1.094-.1c-6.434-.824-15.26-3-26.222-6.43-4.677-1.449-9.772-3.139-14.309-4.761l-1.035-.355.148-1.115,1.158-3.244,1.01.384c.253.1,24.992,9.091,39.833,11.035l1.095.122ZM1593.281,116.8c4.339,1.542,9.1,3.092,13.46,4.47a170.957,170.957,0,0,0,24.819,6.147l.033-.169c-13.375-1.96-33.53-8.973-38.228-10.654Z" transform="translate(0.675 92.575)" fill="#fff"/>
    <path id="Path_145" data-name="Path 145" d="M1604.264,145.108l-3.962-2.176,18.123-33.442,3.959,2.125Zm-1.056-3.012.194.08,16.067-29.673-.156-.1Z" transform="translate(31.427 78.59)" fill="#fff"/>
    <path id="Path_146" data-name="Path 146" d="M1638.76,129.269c-10.98,0-45-6.333-46.458-6.59l-1.064-.19.833-4.419,1.047.169c3.955.739,38.173,6.971,46.559,6.464l1.086-.046.228,4.533-1.082.038a9.664,9.664,0,0,1-1.149.042m-44.983-8.508c6.007,1.12,35.068,6.341,44.941,6.341v-.211c-9.476,0-37.147-4.926-44.924-6.316Z" transform="translate(2.203 106.257)" fill="#fff"/>
    <path id="Path_147" data-name="Path 147" d="M1605.92,143.976l-3.733-2.531,18.8-27.823,3.756,2.526Zm-.735-3.143.16.131,16.4-24.2-.186-.148Z" transform="translate(37.505 91.914)" fill="#fff"/>
    <path id="Path_148" data-name="Path 148" d="M1594.725,151.049l-.448-4.465,1.044-.152c.241,0,27.092-2.818,39.319-3.008,2.568-4.588,12.133-21.672,14.992-26.835l.533-.942,3.933,2.188-.511.925c-2.927,5.268-12.771,22.83-15.128,27.084l-1.167,2.066h-1.351c-11.018,0-39.851,2.987-40.143,2.987Zm1.9-2.573.026.211c5.391-.545,29.331-2.928,39.293-2.928l.11-.017.528-.946c2.23-4.022,11.182-19.987,14.609-26.121l-.208-.122c-3.515,6.358-12.9,23.083-14.773,26.467l-.313.532h-.608c-10.291.127-33.446,2.357-38.664,2.923" transform="translate(12.002 98.444)" fill="#fff"/>
    <path id="Path_149" data-name="Path 149" d="M1599.072,145.219l-.929-4.457,1.981-.384c15.935-3.3,26.251-5.369,29.982-5.919l11.728-12.72,3.329,3.054-12.876,13.983-.837.084c-4.385.465-31.076,6.067-31.325,6.1Zm1.618-2.776.047.207c5.031-1.052,26.476-5.513,30.476-5.919h.03l10.879-11.791-.148-.148L1631.157,136.5l-.389.063c-2.272.275-9.353,1.559-30.079,5.881" transform="translate(24.465 118.088)" fill="#fff"/>
    <path id="Path_150" data-name="Path 150" d="M1668.54,246.749l-.685-.824c-20.278-24.114-36.686-46.716-48.735-67.163-9.657-16.451-16.53-31.553-20.493-44.971a100.864,100.864,0,0,1-3.265-15.01,58.641,58.641,0,0,1-.5-10.452c.275-5.762,1.547-8.483,1.555-8.5l.456-.951,4.127,1.859-.494,1.01a22.315,22.315,0,0,0-1.158,7.093c-.19,4.677.3,12.64,3.735,24.139,6.151,20.557,22.952,56.276,68.231,110.063l.684.82Zm-70.534-144.984a28.651,28.651,0,0,0-.988,6.65,56.351,56.351,0,0,0,.481,10.114,96.816,96.816,0,0,0,3.194,14.655c3.891,13.253,10.73,28.241,20.295,44.481,11.841,20.118,27.916,42.356,47.8,66.047l.182-.127c-44.987-53.6-61.777-89.363-67.94-109.983-3.523-11.791-4.013-20-3.824-24.845a28.117,28.117,0,0,1,1-6.907Z" transform="translate(13.694 44.364)" fill="#fff"/>
    <path id="Path_151" data-name="Path 151" d="M1600.494,113.775l-6.832-9.6,3.68-2.653,6.861,9.645Zm-3.823-9.134,4.347,6.147.165-.127-4.343-6.109Z" transform="translate(10.019 52.903)" fill="#fff"/>
    <path id="Path_152" data-name="Path 152" d="M1624.476,222.383c-3.371,0-5.712-.169-6.793-.253l-1.305-.139-.574-1.056a4.543,4.543,0,0,1-.343-1.61c-.042-.52-.127-1.343-.2-2.438a83.511,83.511,0,0,1-.075-8.973,108.564,108.564,0,0,1,6.083-30.451,126.991,126.991,0,0,1,23.151-39.914c12.969-15.352,30.02-28.955,50.67-40.5l.938-.5,2.2,3.912-.937.553c-1.158.625-2.3,1.28-3.422,1.935,3.1,2.721,5.635,8.42,7.76,17.355a134.28,134.28,0,0,1,2.37,13.434c2.987,29.107-3.223,51.54-18.457,66.829a67.937,67.937,0,0,1-21.563,14.3,92.613,92.613,0,0,1-22.091,6.155,116.639,116.639,0,0,1-17.413,1.365m-6.721-2.4.059.021c1.111.084,3.375.228,6.662.228a111.408,111.408,0,0,0,17.089-1.343,91.313,91.313,0,0,0,21.583-6.024,65.018,65.018,0,0,0,20.882-13.819c14.735-14.8,20.743-36.682,17.832-64.97a126.478,126.478,0,0,0-2.349-13.291c-2.361-9.962-4.968-14.3-6.979-16.151l-.13.169a16.9,16.9,0,0,1,3.76,5.94,65.364,65.364,0,0,1,3.147,10.105,126.541,126.541,0,0,1,2.354,13.227c2.9,28.241-3.093,50.083-17.777,64.78-12.839,12.936-30.075,17.908-42.28,19.822a107.818,107.818,0,0,1-22.821,1.179l-.9-.063-.093-.9a71.148,71.148,0,0,1-.207-11.394,105.834,105.834,0,0,1,6.092-29.8c7.473-20.975,25.4-50.9,68.257-76.089v-.025c1.086-.651,2.214-1.28,3.359-1.956l-.085-.169c-20.016,11.292-36.552,24.6-49.157,39.487a125.206,125.206,0,0,0-22.749,39.217,107.3,107.3,0,0,0-5.965,29.859,79.785,79.785,0,0,0,.058,8.724c.081,1.052.153,1.859.208,2.34.075.524.1.735.125.862Zm2.079-2.256a103.194,103.194,0,0,0,21.427-1.179c11.9-1.871,28.693-6.717,41.088-19.188,14.224-14.254,19.97-35.487,17.165-63.056a126.453,126.453,0,0,0-2.307-12.991,59.829,59.829,0,0,0-3.037-9.729c-1.542-3.62-2.911-5.057-3.785-5.644l-.739-.465c-39.876,24.405-56.778,52.837-63.926,72.954a104.769,104.769,0,0,0-6,29.192,74.322,74.322,0,0,0,.114,10.105" transform="translate(79.159 36.86)" fill="#fff"/>
    <path id="Path_153" data-name="Path 153" d="M1643.506,124.462l-.777-.76c-7.026-6.379-14.626-19.129-14.955-19.674l-.554-.9,3.858-2.3.561.929c.326.5,7.744,12.826,14.111,18.592l.815.739Zm-13.316-20.6c1.787,2.945,7.685,12.167,13.181,17.519l.148-.148c-5.45-5.31-11.344-14.554-13.139-17.477Z" transform="translate(118.23 50.649)" fill="#fff"/>
    <path id="Path_154" data-name="Path 154" d="M1644.993,135.6l-.824-.676c-1.88-1.555-6.844-3.54-13.941-5.53-5.605-1.648-10.594-2.721-10.612-2.721l-1.085-.254.971-4.4,1.039.232c3.519.8,21.173,4.825,26.475,9.159l.837.676ZM1621.1,124.781c1.8.435,5.552,1.343,9.742,2.522,6.688,1.918,11.323,3.709,13.828,5.306l.125-.144c-5.385-3.519-19.441-6.911-23.666-7.879Z" transform="translate(90.208 118.987)" fill="#fff"/>
    <path id="Path_155" data-name="Path 155" d="M1630.52,139.2l-.925-.608c-2.053-1.288-4.867-4.487-8.605-9.712-2.653-3.726-4.778-7.156-4.787-7.156l-.592-.929,3.845-2.378.566.883c3.117,5.074,9.171,13.7,12.019,15.5l.892.591Zm-11.939-17.714c.833,1.246,2.371,3.625,4.182,6.151,3.5,4.926,5.762,7.347,7.127,8.525l.135-.207c-3.7-3.075-9.421-11.749-11.254-14.6Z" transform="translate(80.796 107.382)" fill="#fff"/>
    <path id="Path_156" data-name="Path 156" d="M1681.1,145.616l-47.932-.777-.642-1.111c-5.918-10.7-13.138-25.3-14.536-28.119l-.491-.993.917-.545,3.109-1.521.461.972c.063.127,7.541,15.352,13.856,26.852l45.33.739Zm-46.652-2.907,44.544.739v-.232l-44.431-.714-.316-.57c-5.454-9.919-11.918-22.868-13.713-26.514l-.194.106c2.159,4.381,8.682,17.4,14.072,27.126Z" transform="translate(86.887 88.457)" fill="#fff"/>
    <path id="Path_157" data-name="Path 157" d="M1634.576,149.142l-.642-1.766c-3.063-8.551-13.473-36.162-13.574-36.42l-.38-1.01,4.228-1.6.5,1.305c2.231,5.974,9.628,25.626,12.809,34.388,5.184-.862,21.9-3.785,26.378-4.318,5.263-.608,17.49-1.5,17.591-1.517l1.086-.059.317,4.508-1.094.059c-.094.025-12.272.908-17.355,1.453-5.128.634-27.776,4.617-27.979,4.655Zm-11.834-37.949c1.915,5.074,10.485,27.84,13.2,35.465l.03.08h.11c.2-.042,22.842-4.043,28.085-4.677,4.326-.5,13.329-1.2,16.418-1.407l-.022-.19c-3.1.228-12.154.887-16.408,1.39-4.731.566-23.443,3.815-27.126,4.465l-.908.148-.292-.824c-2.894-8.006-10.295-27.654-12.876-34.494Z" transform="translate(94.884 74.911)" fill="#fff"/>
    <path id="Path_158" data-name="Path 158" d="M1640.384,140.686l-.752-1.035c-4.533-5.813-16.518-31.338-16.644-31.587l-.449-.967,4.073-1.918.461.946c1.9,4.047,11.152,23.438,15.377,29.779,10.943-1.284,29.978-3.811,35.056-5.788l1-.4,1.643,4.229-1.01.363c-6.489,2.569-30.138,5.386-37.215,6.189Zm-15-32.58c2.256,4.719,12.095,25.335,15.927,30.223l.11.059.254-.021c6.679-.752,28.207-3.346,35.681-5.707l-.085-.186c-7.972,2.5-32.344,5.327-35.212,5.6l-.6.106-.4-.5c-3.92-5.543-12.856-24.165-15.47-29.657Z" transform="translate(103.136 64.685)" fill="#fff"/>
    <path id="Path_159" data-name="Path 159" d="M1647.214,134.36a17.369,17.369,0,0,1-3.6-.317l-.592-.211c-.934-.667-2-1.728-4.7-5.872-1.533-2.378-3.43-5.475-5.639-9.205-3.249-5.56-6.24-10.9-7.017-12.344l-.719-1.28,3.942-2.171.5.908c.93,1.669,3.967,7.093,7.186,12.572,5.585,9.514,7.74,12.4,8.563,13.286a24.1,24.1,0,0,0,5.914-.169c3.963-.5,10.406-2.019,18.643-6.48l.951-.511,2.13,3.963-.947.507c-8.926,4.841-16.019,6.506-20.362,7.009a30.452,30.452,0,0,1-4.259.317m-19.34-28.368c1.1,1.943,3.785,6.738,6.683,11.668,2.159,3.7,4.051,6.759,5.572,9.142,1.918,2.945,3.224,4.63,3.917,5.137a16.454,16.454,0,0,0,3.168.228,29.064,29.064,0,0,0,3.972-.27c4.055-.465,10.493-1.96,18.693-6.252l-.093-.169a56.758,56.758,0,0,1-18.44,6.252,28.252,28.252,0,0,1-6.886.1l-.334-.063-.241-.228c-1.394-1.284-4.554-6.147-9.18-13.958-2.762-4.782-5.4-9.522-6.624-11.732Z" transform="translate(110.91 57.53)" fill="#fff"/>
    <path id="Path_160" data-name="Path 160" d="M1632.47,123.009l-2.484-3.794.909-.583c1.829-1.225,20.806-14.241,20.975-14.368l.862-.587,2.568,3.688-.887.629c-.186.131-19.12,13.164-21.047,14.406Zm.478-3.2.127.211c3.675-2.488,15.846-10.828,19.234-13.189l-.113-.186c-3.4,2.315-15.593,10.722-19.248,13.164" transform="translate(127.149 59.845)" fill="#fff"/>
    <path id="Path_161" data-name="Path 161" d="M1615.107,232.643l-2.9-3.244.765-.735c1.043-.887,6.341-5.729,13.806-13.168,7.545-7.494,18.893-19.268,30.143-32.829,12.615-15.192,22.542-29.445,29.492-42.356,8.575-15.948,12.593-29.843,11.964-41.3l-.08-1.052,4.524-.253.076,1.052a63.616,63.616,0,0,1-2.974,21.376,123.5,123.5,0,0,1-9.548,22.306c-7.1,13.181-17.19,27.734-30,43.15-11.339,13.624-22.787,25.546-30.413,33.129-8.242,8.213-13.924,13.269-14.046,13.375Zm.126-3.1.135.165c1.792-1.635,6.574-6.037,13.063-12.5,7.587-7.562,19.006-19.4,30.282-32.986,12.72-15.331,22.741-29.7,29.775-42.791a120.506,120.506,0,0,0,9.366-21.909,60.862,60.862,0,0,0,2.91-19.543h-.19c.339,11.647-3.793,25.525-12.289,41.367-7,13.033-17.008,27.375-29.716,42.728-11.313,13.607-22.7,25.424-30.256,32.986-6.358,6.295-11.153,10.739-13.079,12.484" transform="translate(69.81 40.588)" fill="#fff"/>
  </g>
</svg>
