<svg xmlns="http://www.w3.org/2000/svg" width="145" height="146" viewBox="0 0 145 146">
  <g id="Group_198" data-name="Group 198" transform="translate(-1251 -1846)">
    <g id="Group_195" data-name="Group 195">
      <rect id="Rectangle_22" data-name="Rectangle 22" width="145" height="146" rx="72.5" transform="translate(1251 1846)" fill="#e19d53"/>
    </g>
    <g id="Group_10" data-name="Group 10" transform="translate(1289 1884.693)">
      <path id="Path_50" data-name="Path 50" d="M241.371,142.163a34.181,34.181,0,0,1-28.891,33.768,35.536,35.536,0,0,1-9.3.159,32.893,32.893,0,0,1-10.907-3.167,34.577,34.577,0,0,1-15.068-14.307,33.486,33.486,0,0,1-4.025-12.793,34.069,34.069,0,0,1,9.368-27.368,34.285,34.285,0,0,1,8.295-6.34,33.151,33.151,0,0,1,12.857-3.976,33.972,33.972,0,0,1,16.539,2.425,35.584,35.584,0,0,1,8.4,4.962c.5.4.49.445-.049.735a64.4,64.4,0,0,0-5.541,3.293.734.734,0,0,1-.955,0,26.045,26.045,0,0,0-12.2-4.35,26.811,26.811,0,0,0-12.782,1.8,27.339,27.339,0,0,0-8.34,5.282,27.143,27.143,0,0,0-7.465,27.95,26.05,26.05,0,0,0,5.237,9.479,27.137,27.137,0,0,0,42.963-2.193,26.847,26.847,0,0,0,4.755-16.329,27.626,27.626,0,0,0-.534-4.508.942.942,0,0,1,.324-1.013c1.657-1.511,3.367-2.959,5.076-4.41.307-.26.438-.153.545.182a38.364,38.364,0,0,1,1.494,6.786A29.563,29.563,0,0,1,241.371,142.163Z" transform="translate(-172.984 -107.971)" fill="#fff"/>
      <path id="Path_51" data-name="Path 51" d="M356.974,241.58a5.561,5.561,0,0,1-4.512-2.288,24.606,24.606,0,0,1-2.452-3.983c-1.185-2.031-2.409-4.037-3.721-5.988a70.2,70.2,0,0,0-4.457-6.046c-.865-1.028-1.853-1.951-2.677-3.016a5.145,5.145,0,0,1-.923-1.651,1.982,1.982,0,0,1,.343-1.927,9.78,9.78,0,0,1,4.16-3.156,5.475,5.475,0,0,1,5.209.7,24.857,24.857,0,0,1,5.833,5.726c1.095,1.444,2.089,2.955,3.106,4.451.333.489.37.49.692.016a64.934,64.934,0,0,1,16.254-16.56,67.282,67.282,0,0,1,7.452-4.519,34.165,34.165,0,0,1,11.432-3.8,7.837,7.837,0,0,1,2.586-.042c.03.006.062,0,.092.011.659.149,1.334.3,1.568,1.053a1.781,1.781,0,0,1-.59,1.845,14.072,14.072,0,0,1-1.815,1.514c-3.443,2.5-6.768,5.146-10.018,7.892-2.245,1.9-4.428,3.864-6.518,5.927a95.275,95.275,0,0,0-8.807,9.965,117.263,117.263,0,0,0-7.443,11.087A5.806,5.806,0,0,1,356.974,241.58Z" transform="translate(-322.792 -190.922)" fill="#fff"/>
    </g>
  </g>
</svg>
